<mxfile host="app.diagrams.net" modified="2021-04-07T06:49:14.622Z" agent="5.0 (Windows NT 10.0; Win64; x64) AppleWebKit/537.36 (KHTML, like Gecko) Chrome/77.0.3865.75 Safari/537.36" etag="t51BMS2ufVR22izr4etI" version="14.5.3" type="github">
  <diagram id="2-5aL7xiEA0ehfgupPfu" name="Page-1">
    <mxGraphModel dx="1102" dy="614" grid="1" gridSize="10" guides="1" tooltips="1" connect="1" arrows="1" fold="1" page="1" pageScale="1" pageWidth="827" pageHeight="1169" math="0" shadow="0">
      <root>
        <mxCell id="0" />
        <mxCell id="1" parent="0" />
        <mxCell id="ka1tmLcmJak6n2HzoEUh-3" value="" style="edgeStyle=orthogonalEdgeStyle;rounded=0;orthogonalLoop=1;jettySize=auto;html=1;" edge="1" parent="1" source="ka1tmLcmJak6n2HzoEUh-1" target="ka1tmLcmJak6n2HzoEUh-2">
          <mxGeometry relative="1" as="geometry" />
        </mxCell>
        <mxCell id="ka1tmLcmJak6n2HzoEUh-1" value="呼叫中心" style="rounded=0;whiteSpace=wrap;html=1;" vertex="1" parent="1">
          <mxGeometry x="70" y="120" width="120" height="60" as="geometry" />
        </mxCell>
        <mxCell id="ka1tmLcmJak6n2HzoEUh-5" value="" style="edgeStyle=orthogonalEdgeStyle;rounded=0;orthogonalLoop=1;jettySize=auto;html=1;" edge="1" parent="1" source="ka1tmLcmJak6n2HzoEUh-2" target="ka1tmLcmJak6n2HzoEUh-4">
          <mxGeometry relative="1" as="geometry" />
        </mxCell>
        <mxCell id="ka1tmLcmJak6n2HzoEUh-2" value="保险对外API&lt;br&gt;insurance-open" style="rounded=0;whiteSpace=wrap;html=1;" vertex="1" parent="1">
          <mxGeometry x="270" y="120" width="120" height="60" as="geometry" />
        </mxCell>
        <mxCell id="ka1tmLcmJak6n2HzoEUh-4" value="保单服务&lt;br&gt;insurance-core" style="rounded=0;whiteSpace=wrap;html=1;" vertex="1" parent="1">
          <mxGeometry x="470" y="120" width="120" height="60" as="geometry" />
        </mxCell>
        <mxCell id="ka1tmLcmJak6n2HzoEUh-6" value="http" style="text;html=1;align=center;verticalAlign=middle;resizable=0;points=[];autosize=1;" vertex="1" parent="1">
          <mxGeometry x="200" y="130" width="40" height="20" as="geometry" />
        </mxCell>
        <mxCell id="ka1tmLcmJak6n2HzoEUh-7" value="dubbo" style="text;html=1;align=center;verticalAlign=middle;resizable=0;points=[];autosize=1;" vertex="1" parent="1">
          <mxGeometry x="405" y="130" width="50" height="20" as="geometry" />
        </mxCell>
      </root>
    </mxGraphModel>
  </diagram>
</mxfile>
